<svg width="21" height="25" viewBox="0 0 21 25" fill="none" xmlns="http://www.w3.org/2000/svg">
<path d="M17.49 13.3518C17.5126 15.7127 18.885 17.0568 19.8649 17.7171C20.3859 18.0682 20.6982 18.6879 20.4553 19.2564C20.1793 19.9025 19.7426 20.7831 19.1104 21.6788C18.0715 23.151 16.9933 24.6178 15.2947 24.6482C13.6256 24.678 13.0889 23.6886 11.1808 23.6886C9.27315 23.6886 8.67687 24.6178 7.09694 24.678C5.45737 24.7382 4.20881 23.0861 3.16129 21.6192C1.02073 18.6189 -0.615105 13.1409 1.58141 9.44313C2.67258 7.60682 4.6226 6.44399 6.73918 6.41417C8.34919 6.38439 9.86881 7.46433 10.8531 7.46433C11.8367 7.46433 13.6834 6.16561 15.6248 6.35634C16.2921 6.38327 17.9493 6.58054 19.3319 7.80084C19.8569 8.26427 19.6699 9.05187 19.1636 9.53442C18.3934 10.2684 17.4731 11.5275 17.49 13.3518ZM14.3532 4.37133C14.9918 3.62193 15.4772 2.65699 15.6274 1.63742C15.72 1.00874 15.1333 0.52645 14.511 0.724786C13.5654 1.02619 12.6163 1.62002 11.9778 2.34433C11.36 3.03695 10.8009 4.04824 10.6588 5.10702C10.5829 5.67268 11.0832 6.13217 11.6584 6.01225C12.707 5.79366 13.6914 5.14847 14.3532 4.37133Z" fill="#1A1D1F"/>
</svg>
