<svg width="18" height="18" viewBox="0 0 18 18" fill="none" xmlns="http://www.w3.org/2000/svg">
<g clip-path="url(#clip0_7411_878)">
<path d="M11.4378 1.5083H4.87533C4.48855 1.5083 4.11762 1.66195 3.84413 1.93544C3.57064 2.20893 3.41699 2.57986 3.41699 2.96663V14.6333C3.41699 15.0201 3.57064 15.391 3.84413 15.6645C4.11762 15.938 4.48855 16.0916 4.87533 16.0916H13.6253C14.0121 16.0916 14.383 15.938 14.6565 15.6645C14.93 15.391 15.0837 15.0201 15.0837 14.6333V5.15413L11.4378 1.5083Z" stroke="white" stroke-width="1.45833" stroke-linecap="round" stroke-linejoin="round"/>
<path d="M10.708 1.5083V4.42497C10.708 4.81174 10.8617 5.18267 11.1351 5.45617C11.4086 5.72966 11.7796 5.8833 12.1663 5.8833H15.083" stroke="white" stroke-width="1.45833" stroke-linecap="round" stroke-linejoin="round"/>
<path d="M7.79134 6.61255H6.33301" stroke="white" stroke-width="1.45833" stroke-linecap="round" stroke-linejoin="round"/>
<path d="M12.1663 9.5293H6.33301" stroke="white" stroke-width="1.45833" stroke-linecap="round" stroke-linejoin="round"/>
<path d="M12.1663 12.4458H6.33301" stroke="white" stroke-width="1.45833" stroke-linecap="round" stroke-linejoin="round"/>
</g>
<defs>
<clipPath id="clip0_7411_878">
<rect width="17.5" height="17.5" fill="white" transform="translate(0.5 0.0500488)"/>
</clipPath>
</defs>
</svg>
