<svg width="18" height="18" viewBox="0 0 18 18" fill="none" xmlns="http://www.w3.org/2000/svg">
<path d="M7.0625 2.23755H4.14583C3.34042 2.23755 2.6875 2.89047 2.6875 3.69588V6.61255C2.6875 7.41796 3.34042 8.07088 4.14583 8.07088H7.0625C7.86792 8.07088 8.52083 7.41796 8.52083 6.61255V3.69588C8.52083 2.89047 7.86792 2.23755 7.0625 2.23755Z" stroke="white" stroke-width="1.45833" stroke-linecap="round" stroke-linejoin="round"/>
<path d="M5.60449 8.0708V10.9875C5.60449 11.3742 5.75814 11.7452 6.03163 12.0187C6.30512 12.2922 6.67605 12.4458 7.06283 12.4458H9.97949" stroke="white" stroke-width="1.45833" stroke-linecap="round" stroke-linejoin="round"/>
<path d="M14.3545 9.5293H11.4378C10.6324 9.5293 9.97949 10.1822 9.97949 10.9876V13.9043C9.97949 14.7097 10.6324 15.3626 11.4378 15.3626H14.3545C15.1599 15.3626 15.8128 14.7097 15.8128 13.9043V10.9876C15.8128 10.1822 15.1599 9.5293 14.3545 9.5293Z" stroke="white" stroke-width="1.45833" stroke-linecap="round" stroke-linejoin="round"/>
</svg>
