<svg width="18" height="18" viewBox="0 0 18 18" fill="none" xmlns="http://www.w3.org/2000/svg">
<path d="M7.0625 2.23755H3.41667C3.01396 2.23755 2.6875 2.56401 2.6875 2.96672V8.07088C2.6875 8.47359 3.01396 8.80005 3.41667 8.80005H7.0625C7.46521 8.80005 7.79167 8.47359 7.79167 8.07088V2.96672C7.79167 2.56401 7.46521 2.23755 7.0625 2.23755Z" stroke="#FFFEFE" stroke-width="1.45833" stroke-linecap="round" stroke-linejoin="round"/>
<path d="M15.083 2.23755H11.4372C11.0345 2.23755 10.708 2.56401 10.708 2.96672V5.15422C10.708 5.55692 11.0345 5.88338 11.4372 5.88338H15.083C15.4857 5.88338 15.8122 5.55692 15.8122 5.15422V2.96672C15.8122 2.56401 15.4857 2.23755 15.083 2.23755Z" stroke="#FFFEFE" stroke-width="1.45833" stroke-linecap="round" stroke-linejoin="round"/>
<path d="M15.083 8.80005H11.4372C11.0345 8.80005 10.708 9.12651 10.708 9.52922V14.6334C10.708 15.0361 11.0345 15.3625 11.4372 15.3625H15.083C15.4857 15.3625 15.8122 15.0361 15.8122 14.6334V9.52922C15.8122 9.12651 15.4857 8.80005 15.083 8.80005Z" stroke="#FFFEFE" stroke-width="1.45833" stroke-linecap="round" stroke-linejoin="round"/>
<path d="M7.0625 11.7168H3.41667C3.01396 11.7168 2.6875 12.0433 2.6875 12.446V14.6335C2.6875 15.0362 3.01396 15.3626 3.41667 15.3626H7.0625C7.46521 15.3626 7.79167 15.0362 7.79167 14.6335V12.446C7.79167 12.0433 7.46521 11.7168 7.0625 11.7168Z" stroke="#FFFEFE" stroke-width="1.45833" stroke-linecap="round" stroke-linejoin="round"/>
</svg>
