<svg width="24" height="25" viewBox="0 0 24 25" fill="none" xmlns="http://www.w3.org/2000/svg">
<path d="M23.5652 12.9497C23.5652 12.1597 23.4952 11.4097 23.3752 10.6797H12.0752V15.1897H18.5452C18.2552 16.6697 17.4052 17.9197 16.1452 18.7697V21.7697H20.0052C22.2652 19.6797 23.5652 16.5997 23.5652 12.9497Z" fill="#4285F4"/>
<path d="M12.0752 24.6797C15.3152 24.6797 18.0252 23.5997 20.0052 21.7697L16.1452 18.7697C15.0652 19.4897 13.6952 19.9297 12.0752 19.9297C8.94524 19.9297 6.29524 17.8197 5.34524 14.9697H1.36523V18.0597C3.33523 21.9797 7.38524 24.6797 12.0752 24.6797Z" fill="#34A853"/>
<path d="M5.3452 14.9697C5.0952 14.2497 4.96519 13.4797 4.96519 12.6797C4.96519 11.8797 5.1052 11.1097 5.3452 10.3897V7.29968H1.36519C0.545194 8.91968 0.0751953 10.7397 0.0751953 12.6797C0.0751953 14.6197 0.545194 16.4397 1.36519 18.0597L5.3452 14.9697Z" fill="#FBBC05"/>
<path d="M12.0752 5.42969C13.8452 5.42969 15.4252 6.03969 16.6752 7.22969L20.0952 3.80969C18.0252 1.86969 15.3152 0.679688 12.0752 0.679688C7.38524 0.679688 3.33523 3.37969 1.36523 7.29969L5.34524 10.3897C6.29524 7.53969 8.94524 5.42969 12.0752 5.42969Z" fill="#EA4335"/>
</svg>
