<svg width="48" height="46" viewBox="0 0 48 46" fill="none" xmlns="http://www.w3.org/2000/svg">
<path d="M23.9635 0.000781049C23.7536 0.00801943 23.5513 0.0811361 23.3853 0.209765L0.385335 18.157C0.176063 18.3202 0.0401812 18.5598 0.0075822 18.8232C-0.0250168 19.0865 0.0483374 19.3521 0.211508 19.5613C0.374678 19.7706 0.614298 19.9065 0.877655 19.9391C1.14101 19.9717 1.40653 19.8983 1.6158 19.7352L3.00057 18.6551V44.9461C3.0006 45.2113 3.10596 45.4656 3.29349 45.6532C3.48102 45.8407 3.73536 45.9461 4.00057 45.9461H17.8326C17.9406 45.9639 18.0508 45.9639 18.1588 45.9461H29.8326C29.9406 45.9639 30.0508 45.9639 30.1588 45.9461H44.0006C44.2658 45.9461 44.5201 45.8407 44.7076 45.6532C44.8952 45.4656 45.0005 45.2113 45.0006 44.9461V18.6551L46.3853 19.7352C46.489 19.816 46.6075 19.8756 46.7341 19.9106C46.8608 19.9456 46.9931 19.9553 47.1235 19.9391C47.2539 19.923 47.3799 19.8813 47.4942 19.8165C47.6085 19.7517 47.7089 19.665 47.7897 19.5614C47.8705 19.4577 47.9301 19.3392 47.9651 19.2126C48.0001 19.0859 48.0098 18.9536 47.9936 18.8232C47.9775 18.6928 47.9358 18.5668 47.871 18.4525C47.8061 18.3382 47.7194 18.2378 47.6158 18.157L40.0006 12.2156V4.94609H34.0006V7.53203L24.6158 0.209765C24.4297 0.0654856 24.1987 -0.00851955 23.9635 0.000781049ZM24.0006 2.26836L43.0006 17.0945V43.9461H31.0006V24.9461H17.0006V43.9461H5.00057V17.0945L24.0006 2.26836ZM36.0006 6.94609H38.0006V10.6551L36.0006 9.09258V6.94609ZM19.0006 26.9461H29.0006V43.9461H19.0006V26.9461Z" fill="#FD7E14"/>
</svg>
