<svg width="18" height="19" viewBox="0 0 18 19" fill="none" xmlns="http://www.w3.org/2000/svg">
<path d="M14.6252 11.3537L17.2682 12.9297C17.8142 13.2557 18.0961 13.8897 17.9711 14.5137C17.4601 17.0727 14.8902 18.7127 12.3732 18.0217C6.4342 16.3917 1.79509 11.7667 0.159086 5.81469C-0.532914 3.29669 1.10519 0.724665 3.66519 0.212665L3.68204 0.209674C4.30704 0.0846743 4.94419 0.367675 5.26919 0.916675L6.83218 3.55568C7.38818 4.49368 7.11203 5.70367 6.20303 6.30767L4.54214 7.41268C5.71414 10.2197 7.95408 12.4687 10.7531 13.6387L11.8681 11.9737C12.4771 11.0667 13.6872 10.7947 14.6252 11.3537ZM14.7502 7.17968C14.7502 5.11168 13.0672 3.42968 11.0002 3.42968C10.5862 3.42968 10.2502 3.76568 10.2502 4.17968C10.2502 4.59368 10.5862 4.92968 11.0002 4.92968C12.2402 4.92968 13.2502 5.93868 13.2502 7.17968C13.2502 7.59368 13.5862 7.92968 14.0002 7.92968C14.4142 7.92968 14.7502 7.59368 14.7502 7.17968ZM17.0002 7.92968C16.5862 7.92968 16.2502 7.59368 16.2502 7.17968C16.2502 4.28468 13.8952 1.92968 11.0002 1.92968C10.5862 1.92968 10.2502 1.59368 10.2502 1.17968C10.2502 0.765676 10.5862 0.429676 11.0002 0.429676C14.7222 0.429676 17.7502 3.45768 17.7502 7.17968C17.7502 7.59368 17.4142 7.92968 17.0002 7.92968Z" fill="#2E9156"/>
</svg>
